<?xml version="1.0" standalone="no"?>
<!DOCTYPE svg PUBLIC "-//W3C//DTD SVG 20010904//EN"
 "http://www.w3.org/TR/2001/REC-SVG-20010904/DTD/svg10.dtd">
<svg version="1.0" xmlns="http://www.w3.org/2000/svg"
 width="212.000000pt" height="212.000000pt" viewBox="0 0 212.000000 212.000000"
 preserveAspectRatio="xMidYMid meet">
<metadata>
Created by potrace 1.11, written by Peter Selinger 2001-2013
</metadata>
<g transform="translate(0.000000,212.000000) scale(0.100000,-0.100000)"
fill="#000000" stroke="none">
<path d="M885 2048 c-74 -18 -150 -41 -162 -51 -7 -5 -13 -6 -13 -1 0 5 -4 3
-9 -4 -4 -7 -14 -14 -22 -16 -8 -1 -25 -8 -39 -16 -14 -8 -29 -14 -33 -15 -4
0 -11 -5 -15 -11 -4 -6 -17 -14 -29 -18 -13 -4 -23 -12 -23 -17 0 -5 -6 -9
-14 -9 -8 0 -23 -11 -34 -25 -11 -14 -25 -25 -32 -25 -6 0 -8 -4 -5 -10 3 -5
0 -10 -7 -10 -7 0 -21 -10 -30 -22 -10 -13 -38 -45 -63 -73 -25 -27 -48 -58
-51 -67 -3 -10 -10 -18 -15 -18 -6 0 -8 -4 -4 -9 3 -5 -2 -16 -10 -24 -16 -17
-75 -139 -75 -156 0 -6 -5 -11 -11 -11 -5 0 -7 -4 -4 -10 3 -5 1 -19 -5 -30
-6 -12 -13 -29 -15 -38 -2 -9 -10 -45 -18 -79 -9 -35 -13 -63 -10 -63 3 0 1
-6 -4 -12 -10 -15 -10 -202 1 -268 12 -72 46 -180 77 -248 16 -34 28 -65 28
-69 0 -3 3 -9 8 -12 4 -3 16 -22 27 -41 29 -54 100 -143 179 -223 39 -39 67
-67 63 -60 -6 11 82 -41 109 -65 10 -8 31 -17 50 -22 6 -1 26 -10 45 -19 37
-19 133 -47 187 -54 17 -3 37 -8 42 -12 6 -3 11 0 11 7 0 9 3 9 8 2 8 -13 265
-7 280 6 1 1 7 4 12 5 6 1 11 3 13 4 1 2 13 5 27 7 13 2 27 9 31 15 5 8 8 8
10 1 3 -7 23 -1 52 13 26 13 47 21 47 17 0 -4 4 -2 8 3 13 18 53 36 64 29 7
-5 8 -2 3 6 -6 10 -4 12 8 7 12 -4 14 -2 10 11 -6 15 -5 15 11 3 9 -8 16 -10
14 -5 -2 5 0 10 4 12 4 2 34 30 67 62 33 32 63 55 66 52 3 -3 8 4 12 16 3 12
9 19 14 16 5 -3 9 -1 9 3 0 5 7 18 16 29 14 18 15 18 4 -3 -6 -13 -8 -23 -5
-23 3 0 14 20 26 45 12 25 25 45 31 45 5 0 6 4 3 10 -3 5 -2 10 3 10 5 0 12 8
16 18 5 17 26 53 36 62 13 12 78 169 73 174 -4 3 -2 6 4 6 5 0 10 6 10 13 0 6
7 39 16 72 9 33 18 86 22 119 3 32 8 62 11 67 3 5 2 9 -3 9 -4 0 -8 37 -8 83
0 45 -3 93 -7 107 -4 14 -17 59 -28 100 -12 41 -25 84 -29 95 -28 67 -81 169
-121 230 -25 38 -50 79 -56 90 -6 11 -15 20 -20 20 -14 1 -54 29 -54 38 0 4 5
5 10 2 6 -3 10 -2 10 2 0 5 -10 14 -22 22 -22 13 -22 13 -8 -4 32 -39 -40 12
-116 82 -13 12 -24 20 -24 17 0 -2 -10 1 -22 8 -13 7 -25 13 -28 13 -3 1 -26
11 -52 24 -26 12 -53 24 -60 25 -7 2 -20 6 -28 9 -8 3 -26 8 -40 10 -14 3 -43
10 -64 16 -49 12 -287 12 -341 -1z m853 -293 c-3 -3 -9 2 -12 12 -6 14 -5 15
5 6 7 -7 10 -15 7 -18z"/>
<path d="M1675 340 c-3 -6 1 -7 9 -4 18 7 21 14 7 14 -6 0 -13 -4 -16 -10z"/>
</g>
</svg>
